<?xml version="1.0" encoding="UTF-8"?>
<svg id="Layer_1" data-name="Layer 1" xmlns="http://www.w3.org/2000/svg" viewBox="0 0 1003 1003">
  <defs>
    <style>
      .cls-1 {
        fill: #fff;
        stroke-width: 0px;
      }
    </style>
  </defs>
  <path class="cls-1" d="m1000,2.98H3v664.37c0,33.26,4.89,66.08,14.55,97.57-9.65,21.49-14.55,44.46-14.55,68.27,0,91.99,74.84,166.82,166.83,166.82,23.84,0,46.8-4.91,68.27-14.58,31.44,9.67,64.27,14.58,97.57,14.58,25.05,0,50.09-2.81,74.42-8.36h0s0,0,0,0c29.94,5.55,60.69,8.36,91.39,8.36,49.32,0,97.96-7.17,144.58-21.3,7.52-2.28,14.79-4.66,21.58-7.06,69.51-24.55,133.95-65.22,186.35-117.62s93.08-116.84,117.63-186.35c18.82-53.21,28.36-109.11,28.36-166.17s-9.4-112.04-27.91-164.85h27.91V2.98Zm-482.23,940.45c-.83.55-1.66,1.07-2.49,1.61-1.38.9-2.75,1.8-4.15,2.67-.77.48-1.55.94-2.32,1.42-1.46.9-2.92,1.81-4.4,2.69-.73.43-1.47.85-2.2,1.27-1.53.9-3.06,1.8-4.61,2.67-.65.37-1.31.71-1.97,1.08-1.64.91-3.28,1.82-4.93,2.7-.6.32-1.21.62-1.82.94-1.71.9-3.42,1.8-5.15,2.66-.66.33-1.33.64-1.99.97-1.68.83-3.37,1.66-5.06,2.46-.67.32-1.34.61-2.01.92-1.7.79-3.4,1.58-5.12,2.34-.64.28-1.29.55-1.94.83-1.75.76-3.51,1.53-5.27,2.26-.64.27-1.29.51-1.93.77-1.78.72-3.56,1.45-5.35,2.14-.75.29-1.51.56-2.27.85-1.69.64-3.38,1.28-5.08,1.89-.85.31-1.71.59-2.57.89-1.61.57-3.23,1.14-4.85,1.68-.93.31-1.87.6-2.8.9-1.56.5-3.12,1.02-4.69,1.5-1.03.32-2.08.61-3.12.92-1.48.44-2.95.88-4.43,1.3-1.22.34-2.44.65-3.66.98-1.32.35-2.63.72-3.95,1.06-1.39.35-2.78.68-4.17,1.01-1.14.28-2.28.57-3.43.83-.62-.11-1.23-.24-1.84-.36-2-.38-4.01-.76-6.01-1.17-.01,0-.03,0-.04,0-4.3-.87-8.59-1.82-12.87-2.81-.91-.21-1.82-.41-2.73-.62-1.32-.31-2.63-.65-3.95-.97-1.29-.32-2.59-.62-3.87-.95-1.17-.3-2.33-.61-3.5-.92-1.43-.38-2.87-.74-4.3-1.13-1.12-.3-2.23-.63-3.34-.94-1.47-.41-2.94-.81-4.4-1.24-1.14-.33-2.28-.68-3.42-1.02-1.43-.42-2.86-.84-4.28-1.28-1.17-.36-2.33-.73-3.49-1.1-1.39-.44-2.79-.87-4.18-1.32-1.17-.38-2.34-.78-3.51-1.17-1.37-.46-2.75-.91-4.12-1.38-1.17-.4-2.33-.82-3.5-1.23-1.37-.48-2.73-.95-4.09-1.45-1.17-.42-2.34-.87-3.51-1.3-1.34-.5-2.69-.99-4.02-1.5-1.2-.46-2.39-.93-3.59-1.39-1.3-.51-2.61-1.01-3.91-1.53-1.2-.48-2.4-.98-3.6-1.47-1.29-.53-2.58-1.04-3.86-1.58-1.19-.5-2.38-1.01-3.57-1.52-1.28-.55-2.56-1.09-3.83-1.64-1.2-.52-2.39-1.06-3.59-1.6-1.25-.56-2.51-1.12-3.76-1.69-1.21-.55-2.41-1.12-3.62-1.68-1.02-.48-2.05-.95-3.07-1.44.84-.85,1.62-1.73,2.44-2.6.93-.99,1.88-1.96,2.78-2.97.95-1.05,1.85-2.13,2.76-3.2.87-1.01,1.75-2.01,2.59-3.04.9-1.1,1.75-2.23,2.62-3.35.8-1.03,1.62-2.06,2.4-3.11.85-1.15,1.65-2.33,2.47-3.5.74-1.06,1.5-2.1,2.21-3.17.79-1.18,1.52-2.39,2.28-3.6.69-1.09,1.39-2.17,2.05-3.27.72-1.21,1.39-2.44,2.08-3.66.64-1.13,1.29-2.25,1.9-3.39.65-1.22,1.25-2.47,1.87-3.71.59-1.17,1.2-2.34,1.75-3.52.58-1.23,1.1-2.47,1.65-3.71.54-1.23,1.1-2.44,1.62-3.68.5-1.21.94-2.43,1.41-3.65.5-1.3,1.02-2.59,1.49-3.9.42-1.18.78-2.37,1.18-3.56.45-1.37.93-2.74,1.35-4.12.34-1.14.64-2.3.95-3.45.4-1.45.83-2.89,1.19-4.36.27-1.09.49-2.19.74-3.28.35-1.55.72-3.09,1.03-4.65.2-1.01.35-2.04.53-3.06.29-1.65.61-3.3.85-4.97.14-.95.23-1.9.35-2.85.23-1.75.47-3.5.64-5.26.09-.96.14-1.94.21-2.91.14-1.76.3-3.51.38-5.28.08-1.62.09-3.25.12-4.88,0-.48.03-.97.04-1.45l.05.03v-2.47h-.01c-.13-44.38-17.47-86.09-48.87-117.49-31.39-31.39-73.09-48.71-117.48-48.83h0s-.46-.01-.46-.01h-1.97l.03.05c-2.13.02-4.26.05-6.37.16-.92.04-1.84.14-2.76.2-1.82.12-3.64.22-5.44.4-1.1.11-2.2.27-3.3.4-1.61.19-3.22.36-4.82.59-1.18.17-2.35.4-3.53.6-1.5.25-3,.48-4.49.78-1.22.24-2.42.54-3.62.8-1.43.32-2.87.61-4.29.96-1.23.31-2.44.67-3.66,1-1.38.38-2.77.73-4.14,1.14-1.23.37-2.45.8-3.67,1.2-1.33.44-2.68.85-4,1.32-1.22.43-2.42.92-3.63,1.39-1.3.5-2.61.97-3.9,1.51-1.2.5-2.39,1.04-3.58,1.57-1.27.56-2.55,1.1-3.81,1.69-1.19.56-2.35,1.17-3.52,1.75-1.24.62-2.48,1.22-3.71,1.87-1.15.61-2.29,1.28-3.43,1.92-1.21.68-2.44,1.35-3.63,2.06-1.12.67-2.21,1.38-3.32,2.08-1.19.75-2.38,1.48-3.56,2.25-1.09.72-2.15,1.49-3.23,2.24-1.15.81-2.32,1.6-3.45,2.43-1.06.78-2.08,1.6-3.12,2.41-1.12.87-2.25,1.72-3.35,2.62-1.02.83-2,1.7-3,2.55-1.09.93-2.19,1.85-3.26,2.81-.98.88-1.93,1.8-2.88,2.7-.88.83-1.78,1.62-2.64,2.47-.93-1.96-1.83-3.94-2.74-5.91-.81-1.77-1.65-3.53-2.44-5.3-1.04-2.34-2.04-4.7-3.04-7.06-.7-1.63-1.42-3.25-2.1-4.89-1.09-2.64-2.12-5.29-3.17-7.93-.54-1.37-1.11-2.73-1.63-4.1-1.54-4.02-3.02-8.04-4.44-12.07-1.06-3-2.09-6.02-3.1-9.05-7.03-21.21-12.65-43.04-16.75-65.01,9.41-41.07,26.45-79.51,50.66-114.26,11.12-16.02,23.84-31.22,37.8-45.18,62.46-62.46,145.5-96.85,233.83-96.85s171.38,34.4,233.84,96.85c62.46,62.42,96.85,145.46,96.85,233.83s-34.4,171.38-96.85,233.84c-13.85,13.85-29.05,26.57-45.18,37.8-2.17,1.51-4.35,2.99-6.55,4.45Z"/>
</svg>